<?xml version="1.0" encoding="UTF-8"?><svg id="Layer_1" xmlns="http://www.w3.org/2000/svg" viewBox="0 0 101.8 88"><defs><style>.cls-1{fill:#1e1e1e;}.cls-2{fill:#305dc5;}.cls-3{fill:#fefefe;}</style></defs><path class="cls-1" d="M101.51,42.79c-.42-2.64-3.58-3.01-5.75-2.75v-8.49c0-.06-.5-.57-.65-.64-.65-.3-11.52-.31-12.17,0-.16.07-.65.58-.65.64v8.49h-2.24v-11.38c0-1.18-1.43-2.82-2.72-2.73-9.42.82-20.64-1.07-29.84,0-.83.09-2.39.92-2.39,1.77v12.34h-7.86c-.89,0-2.56,2.44-2.7,3.39-.51,3.3-.38,13.8-.04,17.31.11,1.18,1.49,3.99,2.74,3.99h6.57c-.33,1.52.43,11.76,0,12.19-.12.12-2.18-.1-2.73,0-1.98.35-.97,4.48,0,4.48h5.29v-16.19c0-.76,3.16-.42,3.85-.48v6.9c0,1.54,2.88,1.27,2.88.32v-13.31h27.42c.26,0,.56.78.49,1.11v22.62c.34-.62.95-1.22,1.72-.94l.83,1.58c.15-.56.29-1.78.34-2.39.37-5.13-.31-10.72-.02-15.89h4.17v12.19c0,.13-1.9-.4-2.4.64-.37.74-.29,3.23.47,3.69.4.23,7.39.3,8.18.15,1.92-.37,1.86-3.96.26-4.42-.42-.13-3.62-.05-3.62-.38v-11.87h8.17c.51,0,2.49-1.95,2.39-2.74-.61-5.83.89-13.61,0-19.2ZM85.18,33.31h7.53s.48.45.48.48v6.25h-8.33l.32-6.73ZM47.98,28.82h29.18v16.35h-29.18v-16.35ZM37.72,42.93h7.38v2.24h-7.22c-.79,0-.28-2.24-.16-2.24ZM45.58,56.07c-1.08,0-.74,2.57,0,2.57h4.65v3.53h-12.03s-.48-.45-.48-.48v-13.63h47.46v8.01h-39.6ZM86.46,62.17c-1.1-.11-2.96.54-2.82-1.03.04-.45.16-2.41.25-2.5.1-.11,2.1.07,2.57,0v3.53ZM98.64,61.69s-.44.48-.48.48h-8.82v-5.29c0-.5-1.28-.73-1.28-.81v-8.01h10.58v13.63ZM98.64,45.17h-18.59v-2.24h18.11c.57,0,.54,1.79.48,2.24Z"/><path class="cls-1" d="M50.95,23.61c-.34-.29-1.47-5.37-1.95-6.55C43.24,2.84,23.73-1.23,11.92,7.99-4.16,20.54,2.7,48.13,23.5,49.94c2.07.18,4.4-.2,6.38.03,2.85.33,2.94,2.77-.36,3.18C10.1,55.52-4.34,36.76,1.19,18.42,7.57-2.77,36.83-6.51,49.39,11.54c1.64,2.36,4.59,8.58,4.04,11.35-.21,1.08-1.79,1.32-2.49.72Z"/><path class="cls-2" d="M48.63,81.73c-.25-2.72.52-4.92,3.18-5.95l21.04-.15c3.62.95,2.25,5.06,2.72,7.54.37,1.98,3.56,2.3,4.81.9.54-.6.44-1.36.63-1.69.35-.62.97-1.22,1.74-.94l.83,1.58c-1.41,5.32-8.9,5.62-10.11.97-.71-2.71,1.33-5.8-2.22-6.12-5.87-.53-12.59.37-18.54.08-2.1.48-1.15,2.67-1.83,4.1-.35-.19-1.73-.26-2.24-.32Z"/><path class="cls-2" d="M60.81,14.07h6.41c-.07.74.33,2.24-.53,2.52l-9.42-.28c.02-.74-.15-1.53.17-2.24.55-1.23,5.22-4.9,6.39-6.75,1.29-2.05.71-3.94-1.91-3.86s-1.56,2.69-4.65,1.95c-.65-5.35,8.87-5.91,9.6-1.43.77,4.77-3.57,6.82-6.07,10.08Z"/><path class="cls-2" d="M84.22.93v5.45c2.07-.66,5.05-1.46,6.56.65.15.21.81,1.64.81,1.75v7.86c-.74-.07-2.24.33-2.52-.53-.51-1.55.56-6.73-.44-7.74-1.08-1.08-4.41-.17-4.41,1.37v6.89c-1.35-.08-2.38.53-2.58-1.11-.52-4.29.38-9.67.06-14.08.28-.85,1.78-.46,2.52-.53Z"/><path class="cls-2" d="M77.48,11.18V1.24c-.97.08-2.18-.33-2.9.47-1.35,2.79-4.8,6.52-5.83,9.24-.32.86-.29,1.59-.25,2.48h6.74v3.21s2.24,0,2.24,0c.09-.54-.13-3.09,0-3.21.11-.11,1.81.08,2.25,0,.89-3.02-2.25-2.04-2.25-2.25ZM75.24,11.51l-4.18-.17,4.18-6.25v6.42Z"/><path class="cls-1" d="M50.87,82.05c.39.21,1.7,2.89,3.05,2.89h17.31c.73,0,1.22,2.52-.65,2.88-6.28-1-21.08,3.44-21.96-6.09.51.07,1.89.13,2.24.32Z"/><path class="cls-1" d="M35.63,17.9c-2.21-.34-4.91,4.49-6.58,5.29-.84.41-2.12.25-2.87.5-.13.04-.6.6-.99.78-.44.22-1.21.14-1.26.18-.09.08-.65,2.19-.65,2.4-.05,2.88,3.47,4.74,5.96,2.75,2.36-1.91.82-3.11,1.26-4.18.44-1.06,4.52-4.04,5.44-5.47.53-.83.97-2.06-.31-2.25ZM26.16,28.04c-1.09-.77.17-2.94,1.58-2.06.96.6.11,3.25-1.58,2.06Z"/><path class="cls-2" d="M26.18,23.69c-.13.04-.6.6-.98.78-.44.21-1.21.14-1.26.18l-10.74-12.52c-.55-1.05.22-1.69,1.1-2.1l11.88,13.66Z"/><path class="cls-1" d="M27.37,6.11c2.92-.85,2.64,4.28-.22,2.98-1.4-.64-1.16-2.58.22-2.98Z"/><path class="cls-1" d="M41.17,13.35c-1.91,1.93-4.52-2.12-1.29-2.76,1.76-.35,2.19,1.85,1.29,2.76Z"/><path class="cls-1" d="M7.81,25.68c2.87-.86,3.26,3.07.61,2.82-1.89-.18-1.96-2.41-.61-2.82Z"/><path class="cls-1" d="M13.58,39.15c2.94-.88,2.63,3.16.28,2.83-1.48-.21-1.57-2.44-.28-2.83Z"/><path class="cls-1" d="M27.37,44.59c2.28-.68,3,2.98.26,2.86-1.77-.08-1.38-2.53-.26-2.86Z"/><path class="cls-3" d="M27.74,25.98c.96.6.12,3.25-1.58,2.06-1.09-.77.17-2.94,1.58-2.06Z"/><path class="cls-1" d="M96.08,53.67c-2.09,1.04-2.86-1.87-1.39-2.36,1.81-.61,2.8,1.66,1.39,2.36Z"/><path class="cls-1" d="M90.53,53.77c-1.18-.35-1.15-2.14,0-2.46,2.07-.57,2.6,3.23,0,2.46Z"/><path class="cls-2" d="M89.67,37.96c-2.24,1.12-2.86-2.23-1.39-2.69,1.79-.57,2.88,1.95,1.39,2.69Z"/></svg>